HIERARCHY
ROOT Hips
{
    OFFSET 0.000000 0.000000 0.000000
    CHANNELS 6 Xposition Yposition Zposition Zrotation Xrotation Yrotation
    JOINT Chest
    {
        OFFSET -0.000000 0.078598 0.000000
        CHANNELS 3 Zrotation Xrotation Yrotation
        JOINT Chest2
        {
            OFFSET -0.000000 0.230468 0.000000
            CHANNELS 3 Zrotation Xrotation Yrotation
            JOINT Neck
            {
                OFFSET -0.000000 0.249638 0.000000
                CHANNELS 3 Zrotation Xrotation Yrotation
                JOINT Head
                {
                    OFFSET -0.000000 0.103998 0.019170
                    CHANNELS 3 Zrotation Xrotation Yrotation
                    End Site
                    {
                        OFFSET -0.000000 0.191701 0.000000
                    }
                }
            }
            JOINT LeftCollar
            {
                OFFSET 0.038274 0.205938 -0.001496
                CHANNELS 3 Zrotation Xrotation Yrotation
                JOINT LeftShoulder
                {
                    OFFSET 0.132388 0.000000 0.000000
                    CHANNELS 3 Zrotation Xrotation Yrotation
                    JOINT LeftElbow
                    {
                        OFFSET 0.250301 0.000000 0.000000
                        CHANNELS 3 Zrotation Xrotation Yrotation
                        JOINT LeftWrist
                        {
                            OFFSET 0.285291 0.000000 0.000000
                            CHANNELS 3 Zrotation Xrotation Yrotation
                            End Site
                            {
                                OFFSET 0.000000 -0.143776 0.000000
                            }
                        }
                    }
                }
            }
            JOINT RightCollar
            {
                OFFSET -0.038406 0.205938 -0.001496
                CHANNELS 3 Zrotation Xrotation Yrotation
                JOINT RightShoulder
                {
                    OFFSET -0.132388 0.000000 0.000000
                    CHANNELS 3 Zrotation Xrotation Yrotation
                    JOINT RightElbow
                    {
                        OFFSET -0.250301 0.000000 0.000000
                        CHANNELS 3 Zrotation Xrotation Yrotation
                        JOINT RightWrist
                        {
                            OFFSET -0.285291 0.000000 0.000000
                            CHANNELS 3 Zrotation Xrotation Yrotation
                            End Site
                            {
                                OFFSET -0.000000 -0.143776 0.000000
                            }
                        }
                    }
                }
            }
        }
    }
    JOINT LeftHip
    {
        OFFSET 0.095851 0.000000 0.000000
        CHANNELS 3 Zrotation Xrotation Yrotation
        JOINT LeftKnee
        {
            OFFSET -0.000000 -0.406444 0.000000
            CHANNELS 3 Zrotation Xrotation Yrotation
            JOINT LeftAnkle
            {
                OFFSET -0.000000 -0.408443 0.000000
                CHANNELS 3 Zrotation Xrotation Yrotation
                JOINT LeftToe
                {
                    OFFSET -0.000000 -0.062303 0.143776
                    CHANNELS 3 Zrotation Xrotation Yrotation
                    End Site
                    {
                        OFFSET -0.000000 0.000000 0.038340
                    }
                }
            }
        }
    }
    JOINT RightHip
    {
        OFFSET -0.095851 0.000000 0.000000
        CHANNELS 3 Zrotation Xrotation Yrotation
        JOINT RightKnee
        {
            OFFSET -0.000000 -0.406444 0.000000
            CHANNELS 3 Zrotation Xrotation Yrotation
            JOINT RightAnkle
            {
                OFFSET -0.000000 -0.408443 0.000000
                CHANNELS 3 Zrotation Xrotation Yrotation
                JOINT RightToe
                {
                    OFFSET -0.000000 -0.062303 0.143776
                    CHANNELS 3 Zrotation Xrotation Yrotation
                    End Site
                    {
                        OFFSET -0.000000 0.000000 0.038340
                    }
                }
            }
        }
    }
}
MOTION
Frames:    7
Frame Time:    0.016667
0.056845    0.889490    1.206711    -1.029765    3.614605    -173.861847    -1.056779    -1.309798    -0.761798    -1.436294    1.828106    -0.227170    0.511282    6.147122    -0.260351    0.435050    -1.057276    -0.225770    12.442392    -2.290748    -1.559389    -10.890580    -4.411294    -7.530992    -0.697126    -12.205884    0.763798    81.221664    -3.611310    11.924066    -10.450795    -2.241457    2.198695    19.438364    -8.887514    -1.556931    -4.053607    -9.781765    -2.848101    -82.179031    4.407752    -10.182554    4.228232    9.865512    1.704032    -0.410368    -4.755230    1.963010    -5.128692    -5.303688    12.608938    0.000000    0.000000    0.000000    -5.091492    12.694689    1.694889    0.552232    -9.016890    -1.194846    2.457160    -4.922153    -18.093441    0.000000    0.000000    0.000000    
0.056848    0.889480    1.206806    -1.028217    3.614826    -173.850815    -1.062907    -1.310543    -0.755091    -1.433207    1.832118    -0.224810    0.481872    6.161434    -0.273343    0.452610    -1.064689    -0.246684    12.432492    -2.259584    -1.506900    -10.642248    -5.020690    -7.457222    -1.382515    -11.914839    0.651049    83.087959    -3.227585    11.712182    -10.460818    -2.230306    2.167017    19.511452    -8.829368    -1.532515    -4.063446    -9.860806    -2.922559    -82.357933    4.448778    -10.260242    4.214362    9.863016    1.715523    -0.378001    -4.779956    2.092333    -5.137134    -5.277578    12.452963    0.000000    0.000000    0.000000    -5.093523    12.688486    1.679371    0.564738    -9.014028    -1.201633    2.460141    -4.927812    -18.085327    0.000000    0.000000    0.000000    
0.056948    0.889566    1.207071    -1.045025    3.579764    -173.825012    -1.123415    -1.296025    -0.760661    -1.391363    1.767660    -0.228080    0.468861    6.163055    -0.317749    0.374741    -0.977384    -0.285815    12.413240    -2.232275    -1.476552    -10.801859    -4.866880    -7.582093    -1.013218    -11.907064    1.038735    82.280411    -3.886343    11.635762    -10.456558    -2.207906    2.134211    19.567425    -8.748103    -1.534000    -4.087625    -9.818906    -2.963414    -83.475487    4.382540    -10.173047    4.191761    9.785891    1.727033    -0.362985    -4.723959    1.879827    -5.165316    -5.281005    12.664856    0.000000    0.000000    0.000000    -5.103944    12.631723    1.657611    0.571258    -8.995012    -1.204601    2.420475    -4.908207    -18.097366    0.000000    0.000000    0.000000    
0.056963    0.889554    1.207160    -1.052302    3.580727    -173.829056    -1.162730    -1.284017    -0.738646    -1.339623    1.763721    -0.221325    0.419326    6.168270    -0.347233    0.362848    -0.942303    -0.323905    12.379776    -2.245277    -1.432975    -10.975863    -4.544087    -7.802979    -0.564188    -12.040999    1.378394    81.993942    -4.072793    11.749228    -10.511874    -2.219639    2.065562    19.573648    -8.908737    -1.561745    -3.940526    -9.761958    -2.897623    -83.575829    4.415609    -10.108130    4.183201    9.817948    1.750915    -0.363855    -4.795835    1.923015    -5.201640    -5.233685    12.614441    0.000000    0.000000    0.000000    -5.123969    12.631105    1.702781    0.586884    -9.000801    -1.218591    2.402084    -4.906506    -18.117071    0.000000    0.000000    0.000000    
0.056980    0.889587    1.207224    -1.055038    3.586932    -173.815338    -1.174872    -1.256180    -0.752523    -1.325385    1.764206    -0.226168    0.367144    6.099447    -0.354344    0.373722    -0.835203    -0.342978    12.463524    -2.065380    -1.167105    -11.178474    -4.343861    -8.150653    -0.176009    -12.178874    1.257133    79.222130    -4.611918    11.741692    -10.587682    -2.308922    2.006822    19.720837    -8.841286    -1.536101    -3.996403    -9.747288    -2.917277    -83.591225    4.406364    -10.094433    4.181993    9.816173    1.757701    -0.358967    -4.794647    1.918408    -5.212636    -5.228397    12.597843    0.000000    0.000000    0.000000    -5.134896    12.643524    1.725123    0.597695    -9.014993    -1.231923    2.419672    -4.892788    -18.124958    0.000000    0.000000    0.000000    
0.057026    0.889601    1.207293    -1.054336    3.584866    -173.806473    -1.183833    -1.267469    -0.757916    -1.318457    1.754255    -0.228159    0.336167    6.223880    -0.387784    0.357495    -0.912800    -0.381005    12.464553    -2.097418    -1.191197    -11.183774    -4.259365    -8.107299    -0.200619    -12.206550    1.306796    79.320122    -4.689813    11.765707    -10.580538    -2.321423    2.006136    19.749838    -8.859876    -1.529091    -4.022482    -9.726722    -2.928428    -83.626770    4.395886    -10.072964    4.198523    9.807134    1.749040    -0.383122    -4.795815    1.904048    -5.194186    -5.236883    12.605726    0.000000    0.000000    0.000000    -5.139854    12.649129    1.749264    0.607819    -9.036021    -1.227625    2.436045    -4.884712    -18.151871    0.000000    0.000000    0.000000    
0.057054    0.889583    1.207374    -1.049331    3.581399    -173.798233    -1.189544    -1.278416    -0.766566    -1.303267    1.744461    -0.231101    0.265758    6.289445    -0.404632    0.390269    -0.899593    -0.415377    12.387521    -2.007898    -1.203399    -11.073066    -4.449355    -8.035954    -0.340655    -12.180894    1.193138    79.395462    -4.598563    11.750417    -10.594733    -2.362650    1.955053    19.815042    -8.854460    -1.474202    -4.064868    -9.813856    -2.892135    -82.529549    4.458935    -10.206253    4.208925    9.795504    1.741111    -0.387103    -4.792517    1.905800    -5.204788    -5.235105    12.602286    0.000000    0.000000    0.000000    -5.132740    12.655943    1.746689    0.606073    -9.063367    -1.250339    2.435107    -4.867855    -18.129494    0.000000    0.000000    0.000000    
